<?xml version="1.0" standalone="no"?>
<!DOCTYPE svg PUBLIC "-//W3C//DTD SVG 20010904//EN"
 "http://www.w3.org/TR/2001/REC-SVG-20010904/DTD/svg10.dtd">
<svg version="1.0" xmlns="http://www.w3.org/2000/svg"
 width="228.000000pt" height="228.000000pt" viewBox="0 0 228.000000 228.000000"
 preserveAspectRatio="xMidYMid meet">
<metadata>
Created by potrace 1.11, written by Peter Selinger 2001-2013
</metadata>
<g transform="translate(0.000000,228.000000) scale(0.100000,-0.100000)"
fill="#000000" stroke="none">
<path d="M1043 2273 c-27 -5 -29 -16 -8 -33 11 -9 28 -7 80 10 37 12 68 20 71
18 2 -3 -30 -15 -71 -28 -42 -13 -75 -29 -75 -36 0 -7 -8 -19 -19 -26 -15 -11
-21 -35 -30 -143 -7 -72 -14 -141 -17 -155 -4 -21 1 -27 27 -37 18 -7 36 -10
41 -7 23 14 337 409 330 416 -16 16 -270 32 -329 21z"/>
<path d="M945 2260 c-25 -6 -27 -8 -12 -15 9 -4 23 -3 30 3 6 5 21 12 32 15
l20 5 -20 0 c-11 0 -33 -4 -50 -8z"/>
<path d="M785 2221 c-111 -38 -184 -74 -285 -142 -109 -73 -119 -84 -90 -99
33 -17 53 -5 46 28 -5 24 -4 25 5 6 25 -49 56 -40 283 73 224 112 239 125 180
152 -35 15 -48 14 -139 -18z"/>
<path d="M1230 2048 c-91 -111 -169 -208 -173 -216 -11 -16 28 -62 52 -62 10
0 12 -3 5 -8 -6 -4 -13 -27 -16 -52 l-5 -46 104 -43 c57 -24 102 -46 100 -48
-3 -2 -46 14 -97 37 -52 22 -99 40 -105 40 -6 0 -22 -11 -35 -25 l-23 -24 34
-53 c18 -29 80 -125 137 -213 l103 -160 47 -5 47 -5 82 117 c112 159 112 158
-53 228 -68 29 -123 55 -121 57 2 2 58 -19 123 -47 174 -74 161 -83 297 206
59 124 104 230 101 235 -3 5 -15 9 -27 9 -16 0 -18 3 -9 9 7 4 19 20 27 34 14
28 8 39 -24 44 -7 1 -28 15 -45 32 -39 38 -167 102 -270 135 -43 14 -81 26
-85 26 -3 0 -80 -91 -171 -202z m520 -93 c-19 -7 -42 -13 -50 -13 -8 0 1 6 20
13 19 7 42 13 50 13 8 0 -1 -6 -20 -13z m-115 -35 c-27 -10 -57 -18 -65 -18
-8 0 8 8 35 18 28 10 57 18 65 18 8 0 -7 -8 -35 -18z m-115 -35 c-19 -7 -42
-13 -50 -13 -8 0 1 6 20 13 19 7 42 13 50 13 8 0 -1 -6 -20 -13z m-100 -30
c-19 -7 -42 -13 -50 -13 -8 0 1 6 20 13 19 7 42 13 50 13 8 0 -1 -6 -20 -13z
m-115 -35 c-27 -10 -57 -18 -65 -18 -8 0 8 8 35 18 28 10 57 18 65 18 8 0 -7
-8 -35 -18z m-115 -35 c-19 -7 -42 -13 -50 -13 -8 0 1 6 20 13 19 7 42 13 50
13 8 0 -1 -6 -20 -13z"/>
<path d="M738 2074 c-170 -85 -208 -108 -208 -125 0 -17 29 -34 156 -95 l157
-75 26 25 c15 14 41 31 58 37 37 12 37 11 53 197 6 67 8 127 5 132 -12 19 -42
8 -247 -96z"/>
<path d="M330 1935 l-44 -45 64 21 c86 29 98 39 68 55 -35 20 -40 18 -88 -31z"/>
<path d="M1900 1965 c0 -34 67 -125 93 -125 13 0 28 -5 35 -12 6 -6 14 -9 17
-6 3 3 -28 41 -69 84 -57 60 -75 74 -76 59z"/>
<path d="M1800 1848 c-26 -57 -75 -161 -109 -232 -34 -71 -59 -131 -57 -133 2
-3 75 60 162 139 149 136 157 145 159 183 2 31 -6 51 -33 92 -52 78 -64 73
-122 -49z"/>
<path d="M349 1902 c-53 -19 -84 -36 -101 -57 -43 -52 -90 -125 -86 -134 2 -5
95 -77 207 -160 184 -136 230 -163 224 -135 -1 5 -4 27 -7 49 l-6 40 13 -43
c21 -76 31 -73 156 52 l112 112 -16 38 c-9 20 -14 53 -13 73 l3 35 -158 76
c-118 56 -161 72 -169 64 -9 -9 -1 -59 31 -203 23 -105 41 -193 38 -195 -2 -2
-23 83 -47 190 -45 202 -43 200 -100 222 -3 1 -39 -10 -81 -24z"/>
<path d="M2042 1798 c3 -7 13 -15 24 -17 16 -3 17 -1 5 13 -16 19 -34 21 -29
4z"/>
<path d="M2028 1768 c-4 -11 187 -343 213 -372 24 -26 -39 153 -87 251 -46 95
-59 113 -86 122 -38 13 -35 14 -40 -1z"/>
<path d="M1799 1613 c-156 -141 -173 -164 -131 -177 10 -3 136 -30 282 -61
146 -31 273 -58 283 -61 42 -13 23 34 -93 229 -110 187 -124 205 -151 209 -28
4 -46 -9 -190 -139z"/>
<path d="M124 1648 c-14 -29 -38 -82 -51 -118 -24 -63 -25 -71 -18 -222 5
-101 12 -161 19 -167 8 -7 87 24 254 101 206 94 242 114 241 132 0 15 -45 54
-167 143 -92 67 -186 136 -209 153 l-42 31 -27 -53z"/>
<path d="M757 1512 c-96 -97 -108 -111 -102 -135 5 -20 18 -30 57 -43 27 -9
47 -18 45 -20 -3 -3 -27 4 -55 14 -49 19 -52 19 -67 2 -14 -16 -15 -36 -7
-169 8 -131 12 -154 28 -166 27 -20 32 -20 284 25 338 61 330 59 330 80 0 14
-16 25 -60 41 -33 12 -59 24 -57 26 2 2 31 -7 65 -19 55 -20 61 -20 76 -5 15
15 6 33 -124 235 l-141 219 -37 -10 c-34 -9 -74 1 -122 30 -3 2 -54 -46 -113
-105z m116 -237 c42 -15 76 -30 74 -32 -5 -4 -169 55 -177 64 -6 7 -2 6 103
-32z m190 -70 c42 -15 76 -30 74 -32 -5 -4 -169 55 -177 64 -6 7 -2 6 103 -32z"/>
<path d="M1641 1417 c-6 -6 -11 -16 -11 -21 0 -6 40 -117 89 -246 79 -212 90
-235 112 -238 19 -2 67 37 219 175 107 97 196 184 198 194 4 21 21 17 -303 84
-148 31 -275 58 -281 60 -6 2 -17 -2 -23 -8z"/>
<path d="M27 1370 c-4 -19 -10 -66 -13 -105 -4 -60 -2 -73 15 -95 l21 -25 -1
65 c-1 36 -4 94 -8 130 -6 60 -7 62 -14 30z"/>
<path d="M1534 1333 c-26 -37 -63 -90 -82 -116 -35 -48 -35 -49 -18 -83 9 -19
16 -45 16 -57 0 -20 23 -34 158 -100 160 -79 182 -87 182 -64 0 6 -40 118 -88
247 -60 162 -93 236 -104 238 -10 2 -33 -21 -64 -65z"/>
<path d="M405 1268 c-368 -172 -343 -153 -237 -178 29 -7 51 -14 49 -17 -3 -2
-33 3 -67 12 -34 9 -64 14 -67 11 -2 -2 28 -53 69 -113 l73 -108 38 9 c32 8
42 6 68 -13 l31 -23 114 48 c62 27 114 54 114 60 0 6 -15 16 -32 22 l-33 11
35 -5 c64 -8 67 1 57 175 -7 126 -12 157 -25 168 -9 7 -21 12 -27 12 -5 0 -77
-32 -160 -71z m-70 -224 c38 -13 38 -13 5 -7 -19 3 -53 12 -75 19 -38 13 -38
13 -5 7 19 -3 53 -12 75 -19z m150 -40 c38 -13 38 -13 5 -7 -19 3 -53 12 -75
19 -38 13 -38 13 -5 7 19 -3 53 -12 75 -19z"/>
<path d="M2058 1082 c-200 -180 -221 -207 -180 -232 12 -8 13 -10 1 -7 -8 3
-25 -2 -37 -12 -20 -15 -22 -30 -33 -269 -11 -230 -11 -254 4 -269 55 -55 229
121 341 345 20 40 34 77 31 82 -3 5 -21 14 -41 20 -19 7 -33 14 -31 17 3 2 22
-3 42 -11 21 -9 39 -16 40 -16 8 0 48 139 61 208 14 81 19 322 7 322 -5 -1
-97 -80 -205 -178z m-45 -282 c48 -18 86 -35 84 -37 -5 -4 -189 65 -197 74 -6
7 0 6 113 -37z"/>
<path d="M10 1148 c0 -18 5 -28 15 -28 19 0 19 11 0 36 -14 18 -14 18 -15 -8z"/>
<path d="M11 1063 l1 -48 19 40 c23 50 24 38 2 -25 -15 -41 -15 -56 -4 -116 6
-38 15 -74 19 -80 4 -6 37 -14 74 -18 66 -6 66 -6 81 23 14 29 14 31 -58 138
-62 93 -101 133 -130 133 -3 0 -5 -21 -4 -47z"/>
<path d="M964 1016 c-271 -49 -282 -52 -291 -76 -7 -21 11 -60 131 -272 116
-205 143 -247 160 -244 14 2 63 80 181 291 l161 289 -20 33 c-12 18 -25 32
-31 31 -5 0 -137 -24 -291 -52z"/>
<path d="M1422 1018 c-17 -17 -33 -23 -66 -22 l-44 1 -161 -290 c-89 -159
-159 -292 -156 -295 3 -4 14 -2 23 4 9 6 184 106 388 223 297 169 371 216 367
230 -2 10 -64 47 -159 94 -85 42 -158 77 -162 77 -4 0 -18 -10 -30 -22z"/>
<path d="M485 891 c-101 -44 -110 -50 -113 -77 -5 -58 -13 -75 -43 -93 -24
-15 -38 -17 -63 -10 -32 9 -76 51 -76 73 0 8 -18 16 -46 20 -82 11 -87 10 -80
-21 21 -86 69 -158 193 -293 71 -76 131 -139 136 -139 4 -1 5 11 2 26 -5 27
-5 27 5 5 15 -36 32 -22 56 49 12 35 23 59 23 53 1 -6 -8 -37 -19 -68 -24 -71
-13 -99 35 -91 16 3 104 14 195 25 232 28 229 27 235 53 8 32 -260 507 -286
507 -14 0 -25 -22 -50 -100 -18 -54 -35 -98 -37 -95 -2 2 11 49 29 104 21 64
30 104 24 110 -7 6 -50 -7 -120 -38z m-147 -311 c0 -8 -8 8 -18 35 -10 28 -18
57 -18 65 0 8 8 -7 18 -35 10 -27 18 -57 18 -65z m50 -160 c0 -8 -8 8 -18 35
-10 28 -18 57 -18 65 0 8 8 -7 18 -35 10 -27 18 -57 18 -65z"/>
<path d="M1401 625 c-205 -117 -379 -219 -385 -225 -8 -8 -8 -13 1 -18 7 -4
172 -31 367 -60 l354 -53 24 23 c24 22 25 29 37 277 12 253 10 271 -19 271 -3
-1 -173 -97 -379 -215z"/>
<path d="M171 555 c32 -57 88 -132 147 -196 42 -45 52 -51 57 -36 8 20 -18 54
-146 187 -66 69 -77 78 -58 45z"/>
<path d="M685 340 c-167 -23 -212 -32 -222 -46 -16 -22 -16 -34 0 -55 35 -44
202 -135 323 -174 91 -30 101 -30 107 -8 4 14 5 14 6 -3 1 -19 10 -23 76 -33
42 -6 96 -11 120 -11 l45 0 -82 165 c-63 126 -85 162 -94 152 -6 -6 -22 -66
-34 -132 -13 -66 -25 -115 -27 -109 -2 5 8 63 21 128 23 116 23 119 5 137 -10
10 -22 19 -26 18 -5 -1 -102 -14 -218 -29z"/>
<path d="M998 353 c-10 -12 4 -46 70 -179 l82 -164 34 0 c61 0 189 21 218 36
16 8 33 12 38 9 20 -12 231 77 313 133 24 16 26 21 13 31 -12 10 -42 -3 -166
-74 -84 -47 -154 -85 -156 -83 -2 2 64 42 146 89 83 46 150 90 150 96 0 7 -2
13 -5 13 -5 0 -667 98 -702 103 -13 2 -28 -2 -35 -10z"/>
<path d="M1840 270 c-8 -5 -11 -12 -7 -16 4 -4 15 0 24 9 18 18 8 23 -17 7z"/>
</g>
</svg>
